<svg width="29" height="28" viewBox="0 0 29 28" fill="none" xmlns="http://www.w3.org/2000/svg">
<g clip-path="url(#clip0_2_2862)">
<path d="M7.55041 7.58402C8.08229 7.05221 8.74137 6.77475 9.5045 6.77475C10.2676 6.77475 10.9036 7.04065 11.4123 7.58402C11.9442 8.0927 12.2217 8.72856 12.2217 9.49158C12.2217 10.2546 11.9558 10.902 11.4123 11.4454C10.9036 11.9541 10.2676 12.2084 9.5045 12.2084C8.74137 12.2084 8.09386 11.9541 7.55041 11.4454C7.04166 10.9136 6.78728 10.2546 6.78728 9.49158C6.78728 8.72856 7.04166 8.0927 7.55041 7.58402ZM2.75191 2.79776C4.62506 0.936441 6.86822 0 9.49294 0C12.1177 0 14.3493 0.936441 16.1877 2.79776C18.0493 4.63596 18.9859 6.86723 18.9859 9.49158C18.9859 11.3529 18.4887 13.0524 17.5059 14.5784C16.5115 16.1045 15.228 17.249 13.6439 18.012C13.563 18.0698 13.4705 18.0698 13.3896 18.012C13.3086 17.9542 13.2739 17.8733 13.3086 17.7577C13.4242 16.9947 13.4936 16.3357 13.5167 15.7692C14.5574 15.0871 15.4015 14.1969 16.0143 13.0986C16.6387 12.0003 16.9508 10.798 16.9508 9.49158C16.9508 8.67075 16.8237 7.89616 16.5693 7.15626C16.3149 6.39323 15.9449 5.69957 15.4708 5.07528C15.0199 4.45099 14.4764 3.91918 13.8636 3.4683C13.2739 3.01742 12.5917 2.65903 11.8286 2.40469C11.0655 2.15035 10.2908 2.02318 9.49294 2.02318C7.43479 2.03474 5.6657 2.77464 4.19724 4.24289C2.75191 5.67645 2.03503 7.42216 2.03503 9.4569C2.03503 10.7286 2.33566 11.9194 2.92535 13.0177C3.51505 14.116 4.32443 15.0062 5.34195 15.6883C5.42288 15.7461 5.46913 15.8154 5.46913 15.8964C5.49226 16.4282 5.5732 17.0525 5.67726 17.7577C5.70039 17.8733 5.67726 17.9542 5.59632 18.012C5.51539 18.0698 5.42288 18.0698 5.34195 18.012C3.73474 17.249 2.42816 16.1045 1.44533 14.5784C0.485631 13.0524 0 11.3645 0 9.49158C0 6.86723 0.91345 4.63596 2.75191 2.79776ZM6.66009 12.2547C6.79884 12.3934 6.78728 12.5206 6.61384 12.6362C6.22071 12.9136 5.92008 13.272 5.72351 13.6998C5.60789 13.931 5.4807 13.9541 5.34195 13.7807C4.04693 12.5552 3.38786 11.0754 3.38786 9.32973C3.38786 7.60714 4.00068 6.15045 5.21476 4.95967C6.46352 3.74576 7.94354 3.16771 9.66638 3.22552C11.2736 3.28332 12.6611 3.8845 13.8174 5.05216C14.9736 6.18514 15.5749 7.54933 15.598 9.16787C15.6558 11.0061 15.0083 12.5437 13.6439 13.7923C13.5052 13.9657 13.378 13.931 13.2624 13.7113C13.0658 13.2836 12.7652 12.9368 12.372 12.6477C12.1986 12.5321 12.187 12.405 12.3258 12.2662C13.1467 11.4454 13.5514 10.4743 13.5514 9.34129C13.5514 8.18519 13.1236 7.2025 12.2795 6.41636C11.4586 5.59552 10.4758 5.21401 9.30794 5.27182C8.2673 5.32962 7.35385 5.73426 6.59071 6.49728C5.8507 7.23719 5.45757 8.12738 5.39976 9.16787C5.36507 10.3702 5.78133 11.3991 6.66009 12.2547ZM11.3198 20.7289C11.1464 21.3763 10.5451 21.7 9.49294 21.7C8.4523 21.7 7.83948 21.3763 7.66604 20.7289C7.46947 20.0237 7.27291 19.0757 7.07634 17.8849C6.87978 16.671 6.77571 15.7345 6.77571 15.0871C6.77571 13.8385 7.6776 13.2258 9.49294 13.2258C11.3083 13.2258 12.2102 13.8501 12.2102 15.0871C12.2102 15.7345 12.1061 16.671 11.9095 17.8849C11.713 19.0757 11.5164 20.0237 11.3198 20.7289Z" fill="white"/>
</g>
<defs>
<clipPath id="clip0_2_2862">
<rect width="18.9859" height="21.7" fill="white"/>
</clipPath>
</defs>
</svg>
